<svg width="256" height="256" viewBox="0 0 256 256" fill="none" xmlns="http://www.w3.org/2000/svg">
  <defs>
    <linearGradient id="goldFill" x1="42" y1="26" x2="234" y2="234" gradientUnits="userSpaceOnUse">
      <stop offset="0" stop-color="#FFF5C8"/>
      <stop offset="0.2" stop-color="#F3D97B"/>
      <stop offset="0.48" stop-color="#D8AF4F"/>
      <stop offset="0.74" stop-color="#B9852C"/>
      <stop offset="1" stop-color="#7A5317"/>
    </linearGradient>

    <linearGradient id="goldEdge" x1="128" y1="24" x2="128" y2="232" gradientUnits="userSpaceOnUse">
      <stop offset="0" stop-color="#FFEFB1"/>
      <stop offset="0.52" stop-color="#C8953A"/>
      <stop offset="1" stop-color="#6A4614"/>
    </linearGradient>

    <linearGradient id="sheenLeft" x1="42" y1="36" x2="98" y2="222" gradientUnits="userSpaceOnUse">
      <stop offset="0" stop-color="#FFF9DE" stop-opacity="0.9"/>
      <stop offset="0.5" stop-color="#F2D784" stop-opacity="0.2"/>
      <stop offset="1" stop-color="#F2D784" stop-opacity="0"/>
    </linearGradient>

    <linearGradient id="sheenRight" x1="126" y1="58" x2="238" y2="206" gradientUnits="userSpaceOnUse">
      <stop offset="0" stop-color="#FFF5D3" stop-opacity="0.56"/>
      <stop offset="0.42" stop-color="#F2CF74" stop-opacity="0.18"/>
      <stop offset="1" stop-color="#F2CF74" stop-opacity="0"/>
    </linearGradient>

    <linearGradient id="groove" x1="140" y1="64" x2="140" y2="210" gradientUnits="userSpaceOnUse">
      <stop offset="0" stop-color="#6F4A17" stop-opacity="0.76"/>
      <stop offset="0.46" stop-color="#8A6221" stop-opacity="0.9"/>
      <stop offset="1" stop-color="#3A250B" stop-opacity="0.84"/>
    </linearGradient>

    <filter id="castShadow" x="24" y="20" width="228" height="220" color-interpolation-filters="sRGB">
      <feDropShadow dx="0" dy="10" stdDeviation="8" flood-color="#05070D" flood-opacity="0.48"/>
      <feDropShadow dx="0" dy="1" stdDeviation="0.8" flood-color="#FFF0BB" flood-opacity="0.22"/>
    </filter>
  </defs>

  <g filter="url(#castShadow)">
    <path
      d="M64 26H81C90.389 26 98 33.6112 98 43V213C98 222.389 90.389 230 81 230H64C49.0883 230 37 217.912 37 203V53C37 38.0883 49.0883 26 64 26Z"
      fill="url(#goldFill)"
      stroke="url(#goldEdge)"
      stroke-width="2.2"
    />

    <path
      d="M126 58H167C209.526 58 244 92.4741 244 135C244 177.526 209.526 212 167 212H126V178H165C189.301 178 209 158.301 209 134C209 109.699 189.301 90 165 90H126V58Z"
      fill="url(#goldFill)"
      stroke="url(#goldEdge)"
      stroke-width="2.2"
    />

    <path
      d="M84.5 33C75.2401 40.0056 70 48.0909 70 60.5V197.5C70 210.375 75.4253 218.677 84.5 224"
      stroke="url(#groove)"
      stroke-width="3.2"
      stroke-linecap="round"
    />

    <path
      d="M146 60C184.107 60 213 91.535 213 134C213 176.465 184.107 208 146 208"
      stroke="url(#groove)"
      stroke-width="3.1"
      stroke-linecap="round"
    />

    <path
      d="M154.5 87C177.972 87 196 107.186 196 134C196 160.814 177.972 181 154.5 181"
      stroke="url(#groove)"
      stroke-opacity="0.75"
      stroke-width="2.6"
      stroke-linecap="round"
    />

    <path
      d="M64 26H81C90.389 26 98 33.6112 98 43V213C98 222.389 90.389 230 81 230H64C49.0883 230 37 217.912 37 203V53C37 38.0883 49.0883 26 64 26Z"
      fill="url(#sheenLeft)"
    />

    <path
      d="M126 58H167C209.526 58 244 92.4741 244 135C244 177.526 209.526 212 167 212H126V178H165C189.301 178 209 158.301 209 134C209 109.699 189.301 90 165 90H126V58Z"
      fill="url(#sheenRight)"
    />
  </g>
</svg>
